inDegrees=no
num_controls=7
num_derivatives=13
num_iterations=131
num_multipliers=7
num_parameters=0
num_slacks=7
num_states=26
objective=0.444700
objective_accelerations=0.058274
objective_balance=0.003713
objective_effort=0.023608
objective_height=0.353600
objective_ligament=0.005505
solver_duration=1890.008514
status=Solve_Succeeded
success=true
DataType=double
version=3
OpenSimVersion=4.5
endheader
time	/jointset/ground_pelvis/pelvis_tilt/value	/jointset/ground_pelvis/pelvis_tx/value	/jointset/ground_pelvis/pelvis_ty/value	/jointset/hip_l/hip_flexion_l/value	/jointset/hip_l/hip_adduction_l/value	/jointset/hip_l/hip_rotation_l/value	/jointset/back/lumbar_extension/value	/jointset/patellofemoral_l/patellar_flexion_l/value	/jointset/knee_l/knee_flexion_l/value	/jointset/knee_l/knee_adduction_l/value	/jointset/knee_l/knee_rotation_l/value	/jointset/ankle_l/ankle_angle_l/value	/jointset/subtalar_l/subtalar_angle_l/value	/jointset/ground_pelvis/pelvis_tilt/speed	/jointset/ground_pelvis/pelvis_tx/speed	/jointset/ground_pelvis/pelvis_ty/speed	/jointset/hip_l/hip_flexion_l/speed	/jointset/hip_l/hip_adduction_l/speed	/jointset/hip_l/hip_rotation_l/speed	/jointset/back/lumbar_extension/speed	/jointset/patellofemoral_l/patellar_flexion_l/speed	/jointset/knee_l/knee_flexion_l/speed	/jointset/knee_l/knee_adduction_l/speed	/jointset/knee_l/knee_rotation_l/speed	/jointset/ankle_l/ankle_angle_l/speed	/jointset/subtalar_l/subtalar_angle_l/speed	/forceset/tau_hip_flexion_l	/forceset/tau_hip_adduction_l	/forceset/tau_hip_rotation_l	/forceset/tau_knee_flexion_l	/forceset/tau_ankle_angle_l	/forceset/tau_subtalar_angle_l	/forceset/tau_lumbar_extension	lambda_cid13_p0	lambda_cid13_p1	lambda_cid13_p2	lambda_cid13_p3	lambda_cid13_p4	lambda_cid13_p5	lambda_cid14_p0	/jointset/ground_pelvis/pelvis_tilt/accel	/jointset/ground_pelvis/pelvis_tx/accel	/jointset/ground_pelvis/pelvis_ty/accel	/jointset/hip_l/hip_flexion_l/accel	/jointset/hip_l/hip_adduction_l/accel	/jointset/hip_l/hip_rotation_l/accel	/jointset/back/lumbar_extension/accel	/jointset/patellofemoral_l/patellar_flexion_l/accel	/jointset/knee_l/knee_flexion_l/accel	/jointset/knee_l/knee_adduction_l/accel	/jointset/knee_l/knee_rotation_l/accel	/jointset/ankle_l/ankle_angle_l/accel	/jointset/subtalar_l/subtalar_angle_l/accel	gamma_cid13_p0	gamma_cid13_p1	gamma_cid13_p2	gamma_cid13_p3	gamma_cid13_p4	gamma_cid13_p5	gamma_cid14_p0
0.5	-0.3547664098019735	-0.04570664105092658	0.7562242715555235	1.126975798171962	-0.4366372138840446	-0.2210048889827389	-0.2546604529622975	0.8088312791521547	0.8088312791522211	-0.1281269419665289	-0.1589737440670682	0.09643363711049276	-0.03854829943419829	-0.8056444234820899	-0.2301690180751821	-0.5454250848698304	2.546877250384636	-0.2039384776099479	0.7518103990751717	-0.1134535965210179	1.99327175077929	1.993271750779231	0.1282877144971601	-0.08669371027627526	0.4246056939934189	-0.01795506579778869	-0.175809859090053	0.01621466470005103	-0.01099114063499929	-0.2168413480306653	0.07227328980404382	0.04762795602297855	0.1717249201446345	-9.553811266089454	-22.08472765753124	6.694765643965533	-7.338364607030523	-522.0115148245907	-64.63497261947015	-25.07365999607113	0.8483216340727411	0.6428153185927843	-0.4627304469099245	-1.423004162695947	0.7540405590795899	-0.2099774989622994	1.098798820369545	-1.272579864771228	-1.272579864771175	0.08948106504392651	0.1782960893908885	-0.4936858283626379	0.559885207657243	-5.524680146701228e-07	-4.552467608352335e-07	2.72034430616305e-06	1.389126644260771e-07	-6.26799046421765e-07	1.238686257059591e-07	-4.572397544142365e-07
0.51	-0.3627784681834154	-0.04797593361126701	0.7507480890795736	1.152368468785205	-0.4386400482661617	-0.2134962265071673	-0.2557413511776468	0.8286972629427314	0.8286972629427929	-0.126843831486006	-0.1598313623116085	0.1006537991650563	-0.03870176813054406	-0.7966494554005662	-0.2236717307057542	-0.5496937986819822	2.531308399081794	-0.196612171405447	0.7498194656127963	-0.102774906529416	1.979655985161655	1.97965598516157	0.1283307050328196	-0.08482205795193143	0.4193518528051077	-0.01275028934462694	-0.1815091211384479	0.01693273967094882	-0.01106700211316201	-0.2194828833151041	0.07190335950512865	0.04798557412297982	0.1760494732247945	-9.883575725029417	-22.16254129868872	6.684599119737778	-7.243664336962484	-525.7297988708107	-64.23080092312046	-24.15547775599314	0.9426860725627341	0.6558791811360294	-0.3914226592758985	-1.676176324536438	0.7240626924209537	-0.2094383452908714	1.045075091466239	-1.446337346591009	-1.44633734659494	-0.0388097968455603	0.1933361228650523	-0.5524571464411083	0.4987796887973619	-5.394813437892251e-07	-3.706047161850391e-07	2.751248639576366e-06	1.572576726267486e-07	-6.018062280500024e-07	1.946818214297593e-07	-4.505730987329795e-07
0.52	-0.3706970565485687	-0.05017971455090947	0.7452327233033206	1.177594980743327	-0.4405691921779774	-0.2060106307813056	-0.2567169282924979	0.8484190365898617	0.8484190365899245	-0.1255603946690518	-0.1606699167691352	0.1048191780312608	-0.03880358789742786	-0.786950420224216	-0.2170666939355899	-0.5532617449304568	2.513645519360631	-0.1892003835495174	0.7471970491337901	-0.09238937642138412	1.964429722090763	1.964429722090652	0.1283529817815762	-0.0828809528712295	0.4136490563217662	-0.00762527990539676	-0.1872083831868562	0.01765081464183165	-0.01114286359119648	-0.2221244185995544	0.07153342920620824	0.04834319222296174	0.1803740263049483	-10.21684262383392	-22.24037483905359	6.675160711346254	-7.181196381387088	-529.530605543853	-63.88586476415983	-23.23860531911917	0.9891350530380343	0.6643651987400813	-0.3225769341744814	-1.841809846359996	0.771136889365306	-0.3362741022884494	1.04016684365551	-1.594679355422641	-1.594679355422641	0.08533830766335947	0.1921866406625047	-0.5834768873686926	0.5439318048709278	-5.258372541432238e-07	-2.783517395623309e-07	2.788320473084146e-06	1.795791345062373e-07	-5.796282954578219e-07	2.66414987482944e-07	-4.427424616333736e-07
0.53	-0.3785153458004131	-0.05231696485475811	0.7396851982167234	1.202634743781999	-0.4424238028932103	-0.1985540439056008	-0.2575900883294578	0.867980709343916	0.8679807093440902	-0.1242769552383727	-0.161488525515989	0.1089254177998389	-0.03885450847451902	-0.7765982826577033	-0.2103705381575217	-0.5561225077818658	2.493969694689322	-0.181713924301416	0.7440202640643351	-0.08230177899280935	1.947649985807119	1.947649985807124	0.1283261526306716	-0.08083476145064054	0.4075336092753952	-0.002574856365053812	-0.1927609771183979	0.01806093927396143	-0.01116626185501368	-0.2248965289807001	0.07128522070980407	0.04860719825572905	0.1845503786790583	-10.51267121813829	-22.28149834687007	6.656887298101045	-7.08476783842796	-533.3012032292673	-63.52014317142045	-22.32463306749002	1.07455576356077	0.6742033295476323	-0.2498248654132074	-2.081158723906902	0.7382441789401449	-0.3237638493249288	0.9841839891092422	-1.757759475908992	-1.75775947589151	-0.04795122497127378	0.2123083721074649	-0.6353548334404772	0.4829036401591579	-5.104886556093131e-07	-1.9065738178176e-07	2.810751579583311e-06	2.024826982093795e-07	-5.589718189479684e-07	3.359567944348519e-07	-4.330120669649737e-07
0.54	-0.3862268531455721	-0.05438686108838457	0.7341126657206544	1.227467610584683	-0.4442033802686799	-0.1911323015086022	-0.2583641468328007	0.8873669569929197	0.8873669569932041	-0.1229940356389048	-0.162286377752766	0.1129685478539192	-0.03885546361389811	-0.7655940388870732	-0.2035958798911532	-0.5582632268248342	2.472266272162396	-0.1741937155970104	0.740228153392844	-0.07256906969820187	1.929344701080528	1.92934470108065	0.1282490155396112	-0.07872965085603641	0.4010271134222574	0.002367807637016296	-0.1983135710499131	0.01847106390609039	-0.01118966011883285	-0.2276686393618464	0.0710370122133961	0.04887120428849295	0.1887267310531959	-10.81247868817616	-22.322692132965	6.639502917213316	-7.018989399013895	-537.1609166233318	-63.21392827023136	-21.41664246610184	1.119556293861505	0.6800656964001226	-0.1785681724863591	-2.2473294174833	0.7778867806261525	-0.4593392226956721	0.9691892168620619	-1.899789044011837	-1.899789044011761	0.07527671963220214	0.2039704754655322	-0.6616866487220106	0.5223798972163604	-4.932542174547368e-07	-1.080066022946176e-07	2.816984434924009e-06	2.26030289462096e-07	-5.399986555504767e-07	4.030741189768363e-07	-4.211798128587592e-07
0.55	-0.3938252449933531	-0.05638872769800411	0.7285223371858527	1.252073657738341	-0.4459075425810154	-0.1837512813878986	-0.2590427287258073	0.9065626520508946	0.9065626520510408	-0.1217121538437069	-0.1630627127649071	0.1169446897988202	-0.03880747332648384	-0.7539803125791289	-0.1967741991068046	-0.5596799545933488	2.448618683567166	-0.1666362021373539	0.7358760248395904	-0.06322684920378789	1.909549816362779	1.90954981636282	0.12811837404617	-0.07653189971959952	0.3941375757455403	0.007208858532934177	-0.2037371586571236	0.01875252619664587	-0.01114530074335929	-0.2303835617560814	0.07062130399461418	0.04898992953538304	0.1927424853953469	-11.16513278631816	-22.28558484482242	6.602834146679633	-6.79811351406284	-540.9156513123495	-62.82019000202277	-20.51937936033129	1.197815611265001	0.6837534832413024	-0.1049521776392431	-2.472223878051041	0.7447111098882829	-0.4384758150421306	0.9048074206249361	-2.055929363236156	-2.05592936324827	-0.05850938378574726	0.2290653416403592	-0.7121154702247031	0.4614394757688709	-4.710090683173074e-07	-1.995450913259775e-08	2.808898426430529e-06	2.48037488556594e-07	-5.159103539558579e-07	4.660919994207091e-07	-4.057521205270306e-07
0.5600000000000001	-0.4013043926156542	-0.05832227065702232	0.7229214959536449	1.276433478946547	-0.4475361242625032	-0.1764168477814096	-0.2596302746228902	0.925553080026176	0.9255530800261828	-0.1204318334234341	-0.163816792683903	0.1208500307383381	-0.03871177817211251	-0.7417451937910181	-0.1899311497708902	-0.5603657663060704	2.423021083071609	-0.1590775894275805	0.7309108505502593	-0.05436187051361769	1.888291284541842	1.888291284541803	0.12793674055459	-0.07427863222685833	0.3868669123456973	0.01190878102842684	-0.2091607462643262	0.0190339884871981	-0.01110094136786348	-0.2330984841503187	0.07020559577582956	0.04910865478226766	0.1967582397375075	-11.52056469457639	-22.24836831341488	6.566580534149256	-6.612745564017431	-544.7440688262227	-62.48125766831134	-19.63517436635092	1.243834789894803	0.6843394067132871	-0.03238496132770384	-2.637331797548593	0.7781066306495558	-0.5819483699111833	0.8737408560133119	-2.192518464649469	-2.192518464649394	0.06507832000444951	0.2150737467263885	-0.7379117933471994	0.4941542171313169	-4.427510660004543e-07	7.457916043927496e-08	2.783629781336038e-06	2.6819621706123e-07	-4.856838865246867e-07	5.241905469468481e-07	-3.860099023246853e-07
0.5700000000000001	-0.4086583188313135	-0.06018733151969748	0.7173174496143644	1.300527945479719	-0.4490890325782335	-0.1691348427980968	-0.2601315510704053	0.94432378568585	0.9443237856857714	-0.1191535310395833	-0.1645478464472656	0.1246809026002712	-0.03856962957196346	-0.7289433406212302	-0.1830819205287127	-0.5603196536996257	2.395556557383919	-0.1515082916856803	0.7253934540216783	-0.04598928623544259	1.865618134814343	1.865618134814312	0.1277100599213044	-0.07192703910254281	0.3792540079408348	0.01649682486600704	-0.2143114338821666	0.01907742947627406	-0.01099568503850197	-0.2360236189985338	0.07006491602955092	0.04905778522021874	0.2005270525676543	-11.78600375685264	-22.14886052278592	6.515375962199717	-6.421993737687728	-548.4598129319344	-62.06116203502942	-18.76579461830935	1.312802492700553	0.685135938123145	0.04159283197384588	-2.848437653360139	0.7453375097633625	-0.5514509274945516	0.8046371268267247	-2.33939514509618	-2.339395145094901	-0.06850297725962735	0.2465232659387186	-0.7809591408410443	0.4371675603056689	-4.126615933249888e-07	1.465925736271555e-07	2.723256803580059e-06	2.801220436792912e-07	-4.534253773154471e-07	5.722837131561615e-07	-3.65300012778175e-07
0.58	-0.4158813381328397	-0.06198391583892023	0.7117175610932172	1.324338281816215	-0.4505664486837842	-0.1619109749067022	-0.2605519776925172	0.962860823464591	0.9628608234644269	-0.1178778878065194	-0.1652551200452514	0.1284340495427986	-0.03838239291479174	-0.715563810964252	-0.176235841080409	-0.5595342026794518	2.366195043736993	-0.143979147391656	0.7192834321665784	-0.03819190543298182	1.841557708355001	1.841557708354979	0.1274049103974368	-0.0695225991520436	0.3713219284645614	0.02092639243295929	-0.2194621215000274	0.01912087046534932	-0.01089042870917051	-0.2389487538467472	0.06992423628327457	0.04900691565817068	0.20429586539778	-12.05413639256044	-22.04883704367166	6.464040625764391	-6.266917615701778	-552.2488788370193	-61.69139615420384	-17.91265853589422	1.359370087332849	0.6837094479385303	0.1154827214181561	-3.016729389396049	0.7700759410743685	-0.7004734352149437	0.7587001608704477	-2.469973811018013	-2.469973811018098	0.04938454188802835	0.225643111963118	-0.8017468076293808	0.4624589630057259	-3.801869499499354e-07	1.892772808265817e-07	2.617166555381217e-06	2.813259515613487e-07	-4.185204881161652e-07	6.073466153249584e-07	-3.433299000857755e-07
